<svg width="680" height="420" viewBox="0 0 680 420" xmlns="http://www.w3.org/2000/svg" role="img">
  <title>Skill Breakdown</title>
  <desc>UI/UX Design 80%, Frontend Dev 75%, Python 65%, C/C++ 55%, JavaScript 65%, Database SQL 40%</desc>
  <defs>
    <linearGradient id="g1" x1="0%" y1="0%" x2="100%" y2="0%">
      <stop offset="0%" stop-color="#f857a4"/>
      <stop offset="100%" stop-color="#ff5858"/>
    </linearGradient>
    <linearGradient id="g2" x1="0%" y1="0%" x2="100%" y2="0%">
      <stop offset="0%" stop-color="#4facfe"/>
      <stop offset="100%" stop-color="#00f2fe"/>
    </linearGradient>
    <linearGradient id="g3" x1="0%" y1="0%" x2="100%" y2="0%">
      <stop offset="0%" stop-color="#43e97b"/>
      <stop offset="100%" stop-color="#38f9d7"/>
    </linearGradient>
    <linearGradient id="g4" x1="0%" y1="0%" x2="100%" y2="0%">
      <stop offset="0%" stop-color="#f7971e"/>
      <stop offset="100%" stop-color="#ffd200"/>
    </linearGradient>
    <linearGradient id="g5" x1="0%" y1="0%" x2="100%" y2="0%">
      <stop offset="0%" stop-color="#a18cd1"/>
      <stop offset="100%" stop-color="#fbc2eb"/>
    </linearGradient>
    <linearGradient id="g6" x1="0%" y1="0%" x2="100%" y2="0%">
      <stop offset="0%" stop-color="#667eea"/>
      <stop offset="100%" stop-color="#764ba2"/>
    </linearGradient>
    <clipPath id="c1"><rect width="440" height="12" rx="6"/></clipPath>
    <clipPath id="c2"><rect width="440" height="12" rx="6"/></clipPath>
    <clipPath id="c3"><rect width="440" height="12" rx="6"/></clipPath>
    <clipPath id="c4"><rect width="440" height="12" rx="6"/></clipPath>
    <clipPath id="c5"><rect width="440" height="12" rx="6"/></clipPath>
    <clipPath id="c6"><rect width="440" height="12" rx="6"/></clipPath>
  </defs>

  <rect width="680" height="420" rx="14" fill="#0d1117" stroke="#30363d" stroke-width="1"/>

  <text x="34" y="44" font-family="'Segoe UI',Ubuntu,sans-serif" font-size="17" font-weight="700" fill="#e6edf3">&#x1F4CA; Skill Breakdown</text>
  <text x="34" y="64" font-family="'Segoe UI',Ubuntu,sans-serif" font-size="12" fill="#8b949e">Visual snapshot of where I spend my time</text>
  <line x1="34" y1="76" x2="646" y2="76" stroke="#21262d" stroke-width="1"/>

  <text x="34" y="106" font-family="'Segoe UI',Ubuntu,sans-serif" font-size="13" fill="#c9d1d9">UI/UX Design</text>
  <text x="646" y="106" font-family="'Segoe UI',Ubuntu,sans-serif" font-size="12" fill="#ff7eb3" text-anchor="end" font-weight="600">80%</text>
  <rect x="34" y="112" width="440" height="12" rx="6" fill="#161b22"/>
  <g transform="translate(34,112)" clip-path="url(#c1)">
    <rect width="352" height="12" rx="6" fill="url(#g1)"/>
  </g>

  <text x="34" y="154" font-family="'Segoe UI',Ubuntu,sans-serif" font-size="13" fill="#c9d1d9">Frontend Dev</text>
  <text x="646" y="154" font-family="'Segoe UI',Ubuntu,sans-serif" font-size="12" fill="#4facfe" text-anchor="end" font-weight="600">75%</text>
  <rect x="34" y="160" width="440" height="12" rx="6" fill="#161b22"/>
  <g transform="translate(34,160)" clip-path="url(#c2)">
    <rect width="330" height="12" rx="6" fill="url(#g2)"/>
  </g>

  <text x="34" y="202" font-family="'Segoe UI',Ubuntu,sans-serif" font-size="13" fill="#c9d1d9">Python</text>
  <text x="646" y="202" font-family="'Segoe UI',Ubuntu,sans-serif" font-size="12" fill="#43e97b" text-anchor="end" font-weight="600">65%</text>
  <rect x="34" y="208" width="440" height="12" rx="6" fill="#161b22"/>
  <g transform="translate(34,208)" clip-path="url(#c3)">
    <rect width="286" height="12" rx="6" fill="url(#g3)"/>
  </g>

  <text x="34" y="250" font-family="'Segoe UI',Ubuntu,sans-serif" font-size="13" fill="#c9d1d9">C / C++</text>
  <text x="646" y="250" font-family="'Segoe UI',Ubuntu,sans-serif" font-size="12" fill="#ffd200" text-anchor="end" font-weight="600">55%</text>
  <rect x="34" y="256" width="440" height="12" rx="6" fill="#161b22"/>
  <g transform="translate(34,256)" clip-path="url(#c4)">
    <rect width="242" height="12" rx="6" fill="url(#g4)"/>
  </g>

  <text x="34" y="298" font-family="'Segoe UI',Ubuntu,sans-serif" font-size="13" fill="#c9d1d9">JavaScript</text>
  <text x="646" y="298" font-family="'Segoe UI',Ubuntu,sans-serif" font-size="12" fill="#c9a0f5" text-anchor="end" font-weight="600">65%</text>
  <rect x="34" y="304" width="440" height="12" rx="6" fill="#161b22"/>
  <g transform="translate(34,304)" clip-path="url(#c5)">
    <rect width="286" height="12" rx="6" fill="url(#g5)"/>
  </g>

  <text x="34" y="346" font-family="'Segoe UI',Ubuntu,sans-serif" font-size="13" fill="#c9d1d9">Database (SQL)</text>
  <text x="646" y="346" font-family="'Segoe UI',Ubuntu,sans-serif" font-size="12" fill="#9b8fef" text-anchor="end" font-weight="600">40%</text>
  <rect x="34" y="352" width="440" height="12" rx="6" fill="#161b22"/>
  <g transform="translate(34,352)" clip-path="url(#c6)">
    <rect width="176" height="12" rx="6" fill="url(#g6)"/>
  </g>

  <line x1="34" y1="382" x2="646" y2="382" stroke="#21262d" stroke-width="1"/>
  <text x="34" y="400" font-family="'Segoe UI',Ubuntu,sans-serif" font-size="11" fill="#484f58">Generated with GitHub README Stats style</text>
</svg>
